<?xml version="1.0" standalone="no"?>
<!DOCTYPE svg PUBLIC "-//W3C//DTD SVG 20010904//EN"
 "http://www.w3.org/TR/2001/REC-SVG-20010904/DTD/svg10.dtd">
<svg version="1.0" xmlns="http://www.w3.org/2000/svg"
 width="512.000000pt" height="512.000000pt" viewBox="0 0 512.000000 512.000000"
 preserveAspectRatio="xMidYMid meet">
<metadata>
Created by potrace 1.11, written by Peter Selinger 2001-2013
</metadata>
<g transform="translate(0.000000,512.000000) scale(0.100000,-0.100000)"
fill="#000000" stroke="none">
<path d="M1460 4743 c0 -1 101 -60 190 -110 19 -11 91 -53 160 -93 69 -40 144
-84 168 -97 24 -13 163 -94 309 -179 146 -85 269 -154 272 -154 4 0 85 46 181
101 96 56 189 109 205 119 17 9 165 95 330 190 165 95 317 183 337 194 21 12
38 23 38 26 0 3 -493 5 -1095 5 -602 0 -1095 -1 -1095 -2z"/>
<path d="M1428 4618 c17 -28 70 -119 240 -413 19 -33 45 -79 58 -102 80 -140
197 -339 204 -347 5 -5 62 22 137 66 70 41 185 108 256 148 70 40 127 76 127
80 0 3 -116 73 -257 155 -142 82 -352 204 -468 270 -247 143 -304 175 -311
175 -3 0 3 -15 14 -32z"/>
<path d="M3210 4368 c-267 -154 -494 -286 -505 -292 -11 -6 -26 -15 -33 -19
-8 -6 71 -57 240 -154 139 -80 258 -147 265 -150 10 -4 38 38 106 157 10 19
40 71 66 115 25 44 51 88 56 97 17 30 139 242 151 263 26 46 117 202 136 233
11 17 16 32 11 32 -4 -1 -226 -127 -493 -282z"/>
<path d="M1132 4458 c-45 -79 -89 -154 -97 -168 -8 -14 -38 -65 -66 -115 -29
-49 -68 -117 -87 -150 -19 -33 -42 -73 -52 -90 -9 -16 -60 -104 -112 -195 -53
-91 -106 -184 -119 -206 -28 -49 -337 -582 -360 -622 -9 -15 -27 -47 -41 -72
-14 -25 -38 -67 -54 -95 l-28 -49 34 20 c19 11 96 55 170 98 74 42 142 81 150
86 14 9 271 158 355 205 48 28 365 212 383 223 10 6 12 141 10 641 l-3 632
-83 -143z"/>
<path d="M1320 3996 l0 -604 158 90 c86 50 205 118 264 152 58 33 105 63 103
66 -8 13 -300 520 -323 560 -14 25 -61 105 -104 179 -43 74 -78 138 -78 142 0
4 -4 11 -10 14 -7 4 -10 -198 -10 -599z"/>
<path d="M3720 4473 c-40 -71 -83 -146 -96 -168 -12 -22 -96 -168 -187 -325
l-164 -285 136 -78 c75 -44 154 -89 176 -102 22 -12 79 -45 128 -73 l87 -51 0
604 c0 333 -1 605 -3 605 -2 0 -36 -57 -77 -127z"/>
<path d="M3900 3970 l0 -636 128 -74 c70 -40 174 -101 232 -135 58 -34 112
-64 120 -68 8 -4 29 -15 45 -26 17 -10 149 -87 295 -171 146 -84 269 -155 273
-157 5 -3 -3 15 -17 41 -14 25 -37 66 -51 90 -14 25 -140 244 -281 488 -264
455 -281 485 -312 541 -30 51 -168 288 -191 327 -11 19 -24 42 -28 50 -7 16
-132 231 -182 315 l-30 50 -1 -635z"/>
<path d="M2515 3805 c-22 -12 -102 -59 -179 -104 -76 -44 -140 -81 -142 -81
-3 0 -23 -12 -46 -26 -23 -15 -63 -38 -88 -53 -26 -14 -171 -98 -324 -186
l-276 -159 0 -636 0 -635 337 -195 c186 -107 347 -200 358 -206 11 -6 106 -61
212 -123 l192 -112 158 92 c87 50 178 103 203 117 25 13 97 55 160 92 63 37
220 127 347 201 l233 134 0 436 0 436 -550 0 -550 0 2 -236 3 -236 300 -2
c165 -1 306 -2 313 -2 8 -1 12 -20 12 -60 l0 -60 -57 -33 c-32 -18 -66 -37
-75 -43 -9 -5 -29 -17 -45 -26 -15 -8 -124 -71 -240 -138 l-212 -123 -58 33
c-32 18 -155 89 -273 157 -118 69 -233 135 -255 147 l-40 23 -2 354 c-1 195 2
359 5 365 7 10 70 48 440 260 l182 105 48 -27 c26 -15 67 -38 91 -52 24 -14
143 -83 264 -153 188 -109 224 -127 241 -118 57 29 456 261 454 263 -2 2 -118
69 -258 150 -140 81 -386 223 -547 316 -161 93 -293 169 -295 168 -2 -1 -21
-11 -43 -24z"/>
<path d="M970 3075 c-135 -78 -317 -183 -405 -234 -88 -51 -213 -123 -277
-160 l-118 -66 522 -3 c287 -1 523 -1 525 1 2 2 2 139 1 304 l-3 299 -245
-141z"/>
<path d="M3900 2916 l0 -306 528 0 527 0 -75 44 c-41 24 -221 128 -400 231
-179 104 -343 198 -365 210 -41 23 -126 72 -182 107 l-33 20 0 -306z"/>
<path d="M195 2492 c17 -10 53 -31 80 -47 28 -15 183 -104 345 -198 162 -94
349 -201 415 -239 66 -39 135 -79 153 -90 l32 -20 0 306 0 306 -527 0 c-516 0
-527 -1 -498 -18z"/>
<path d="M3900 2204 l0 -306 33 20 c83 51 139 82 147 82 6 0 10 3 10 8 0 4 10
12 23 18 12 6 189 106 392 224 204 117 388 224 410 237 l40 23 -527 0 -528 0
0 -306z"/>
<path d="M155 2354 c21 -38 53 -93 72 -122 18 -29 33 -56 33 -60 0 -4 11 -23
23 -42 13 -19 38 -60 54 -90 17 -30 103 -179 190 -330 88 -151 194 -336 237
-410 43 -74 82 -142 87 -150 5 -8 76 -132 159 -275 82 -143 163 -282 179 -310
l30 -50 1 636 0 637 -217 125 c-321 184 -867 498 -877 505 -5 3 8 -26 29 -64z"/>
<path d="M4890 2358 c-58 -33 -120 -69 -138 -79 -49 -28 -264 -152 -452 -261
-91 -53 -181 -105 -201 -116 -19 -11 -72 -41 -117 -67 l-82 -48 0 -636 c0
-537 2 -632 14 -616 7 11 117 200 243 420 127 220 240 416 251 435 12 19 27
46 35 60 7 14 123 214 257 445 257 445 303 525 298 524 -2 0 -50 -27 -108 -61z"/>
<path d="M1320 1123 c0 -333 2 -604 4 -602 11 10 516 892 516 900 0 7 -59 44
-170 106 -19 11 -106 61 -192 111 l-158 91 0 -606z"/>
<path d="M3765 1709 c-16 -10 -57 -33 -89 -51 -32 -18 -66 -37 -75 -43 -9 -5
-85 -50 -169 -98 -83 -49 -152 -94 -152 -101 0 -6 11 -27 23 -46 13 -19 37
-60 54 -90 16 -30 81 -143 143 -250 63 -107 121 -208 129 -223 9 -16 21 -36
26 -45 6 -9 39 -68 75 -130 l65 -114 3 307 c1 168 1 440 0 604 l-3 298 -30
-18z"/>
<path d="M1872 1272 c-33 -59 -117 -206 -187 -327 -70 -121 -139 -240 -153
-265 -14 -25 -47 -81 -73 -125 -26 -44 -46 -82 -44 -83 2 -2 23 7 47 21 24 14
172 100 330 191 158 91 309 178 336 193 168 95 322 188 322 193 0 4 -100 64
-222 135 -123 70 -239 138 -259 150 l-36 23 -61 -106z"/>
<path d="M2925 1224 c-137 -79 -251 -148 -253 -153 -2 -5 10 -16 25 -24 15 -7
95 -53 176 -101 82 -47 167 -97 190 -109 23 -13 143 -83 267 -154 124 -72 242
-140 263 -152 20 -11 53 -30 73 -41 20 -12 38 -20 39 -18 2 2 -41 78 -94 169
-54 92 -101 173 -104 180 -21 47 -314 543 -322 545 -6 2 -122 -62 -260 -142z"/>
<path d="M2503 981 c-29 -15 -58 -33 -65 -38 -7 -6 -38 -24 -68 -40 -30 -17
-212 -122 -405 -233 -469 -272 -447 -259 -472 -272 -13 -6 -23 -14 -23 -17 0
-4 490 -6 1090 -6 600 0 1090 2 1090 5 0 4 -444 262 -753 439 -23 13 -79 45
-125 72 -95 56 -208 119 -214 119 -1 -1 -26 -13 -55 -29z"/>
</g>
</svg>
